<svg width="1200" height="600" xmlns="http://www.w3.org/2000/svg">
  <defs>
    <linearGradient id="heroGradient" x1="0%" y1="0%" x2="100%" y2="100%">
      <stop offset="0%" style="stop-color:#2563eb;stop-opacity:0.8" />
      <stop offset="100%" style="stop-color:#1d4ed8;stop-opacity:0.9" />
    </linearGradient>
  </defs>
  <rect width="1200" height="600" fill="url(#heroGradient)"/>
  
  <!-- Abstract building shapes -->
  <rect x="100" y="200" width="80" height="300" fill="rgba(255,255,255,0.1)"/>
  <rect x="200" y="150" width="100" height="350" fill="rgba(255,255,255,0.15)"/>
  <rect x="320" y="250" width="90" height="250" fill="rgba(255,255,255,0.1)"/>
  <rect x="430" y="180" width="120" height="320" fill="rgba(255,255,255,0.12)"/>
  <rect x="570" y="220" width="70" height="280" fill="rgba(255,255,255,0.08)"/>
  <rect x="660" y="160" width="110" height="340" fill="rgba(255,255,255,0.14)"/>
  <rect x="790" y="280" width="85" height="220" fill="rgba(255,255,255,0.1)"/>
  <rect x="895" y="200" width="95" height="300" fill="rgba(255,255,255,0.12)"/>
  <rect x="1010" y="240" width="75" height="260" fill="rgba(255,255,255,0.09)"/>
  
  <!-- Windows -->
  <rect x="110" y="220" width="20" height="25" fill="rgba(255,255,255,0.3)"/>
  <rect x="140" y="220" width="20" height="25" fill="rgba(255,255,255,0.3)"/>
  <rect x="170" y="220" width="20" height="25" fill="rgba(255,255,255,0.3)"/>
  <rect x="110" y="260" width="20" height="25" fill="rgba(255,255,255,0.3)"/>
  <rect x="140" y="260" width="20" height="25" fill="rgba(255,255,255,0.3)"/>
  <rect x="170" y="260" width="20" height="25" fill="rgba(255,255,255,0.3)"/>
  
  <rect x="210" y="170" width="25" height="30" fill="rgba(255,255,255,0.3)"/>
  <rect x="245" y="170" width="25" height="30" fill="rgba(255,255,255,0.3)"/>
  <rect x="280" y="170" width="25" height="30" fill="rgba(255,255,255,0.3)"/>
  <rect x="210" y="210" width="25" height="30" fill="rgba(255,255,255,0.3)"/>
  <rect x="245" y="210" width="25" height="30" fill="rgba(255,255,255,0.3)"/>
  <rect x="280" y="210" width="25" height="30" fill="rgba(255,255,255,0.3)"/>
  
  <!-- Overlay pattern -->
  <circle cx="200" cy="100" r="3" fill="rgba(255,255,255,0.2)"/>
  <circle cx="400" cy="80" r="2" fill="rgba(255,255,255,0.15)"/>
  <circle cx="600" cy="120" r="4" fill="rgba(255,255,255,0.25)"/>
  <circle cx="800" cy="90" r="3" fill="rgba(255,255,255,0.2)"/>
  <circle cx="1000" cy="110" r="2" fill="rgba(255,255,255,0.15)"/>
</svg>
